<?xml version="1.0" standalone="no"?><!DOCTYPE svg PUBLIC "-//W3C//DTD SVG 1.1//EN"
        "http://www.w3.org/Graphics/SVG/1.1/DTD/svg11.dtd">
<svg t="1730355659755" class="icon" viewBox="0 0 1024 1024" version="1.1" xmlns="http://www.w3.org/2000/svg" p-id="2706"
     xmlns:xlink="http://www.w3.org/1999/xlink" width="200" height="200">
    <path d="M878.293333 636.16c0 202.453333-164.053333 366.506667-366.506666 366.506667-8.746667 0-17.28-0.213333-25.813334-1.066667-7.04-0.426667-14.293333-1.28-21.12-2.133333-8.96-1.28-17.92-2.773333-26.666666-4.693334-5.333333-1.066667-10.666667-2.346667-16-3.626666l-2.56-0.64h0.213333C262.4 949.76 145.706667 806.826667 145.706667 636.16 145.706667 433.706667 309.76 21.333333 511.786667 21.333333c16 0 32 2.56 47.573333 7.68 179.84 56.533333 318.933333 420.906667 318.933333 607.146667z"
          fill="#F7BE7B" p-id="2707"></path>
    <path d="M878.293333 636.16c0 202.453333-164.053333 366.506667-366.506666 366.506667-8.746667 0-17.28-0.213333-25.813334-1.066667-7.04-0.426667-14.293333-1.28-21.12-2.133333-15.573333-2.133333-30.506667-4.906667-45.226666-8.96 157.653333-40.96 274.346667-183.68 274.346666-354.346667 0-151.68-19.413333-470.826667-134.826666-607.36 180.053333 56.746667 319.146667 421.12 319.146666 607.36z"
          fill="#D38A2E" opacity=".5" p-id="2708"></path>
    <path d="M440.312697 266.242172a47.146667 76.586667 17.273 1 0-90.040782-27.99804 47.146667 76.586667 17.273 1 0 90.040782 27.99804Z"
          fill="#FFFFFF" opacity=".8" p-id="2709"></path>
    <path d="M346.031436 387.45876a17.92 29.013333 17.273 1 0-34.223645-10.641789 17.92 29.013333 17.273 1 0 34.223645 10.641789Z"
          fill="#FFFFFF" opacity=".8" p-id="2710"></path>
</svg>